<?xml version="1.0" encoding="UTF-8" standalone="no"?>
<!DOCTYPE svg PUBLIC "-//W3C//DTD SVG 1.1//EN"
 "http://www.w3.org/Graphics/SVG/1.1/DTD/svg11.dtd">
<!-- Generated by graphviz version 2.43.0 (0)
 -->
<!-- Title: TermAndType_0 Pages: 1 -->
<svg width="388pt" height="589pt"
 viewBox="0.00 0.00 388.00 589.00" xmlns="http://www.w3.org/2000/svg" xmlns:xlink="http://www.w3.org/1999/xlink">
<g id="graph0" class="graph" transform="scale(1 1) rotate(0) translate(4 585)">
<title>TermAndType_0</title>
<polygon fill="#1a202c" stroke="transparent" points="-4,4 -4,-585 384,-585 384,4 -4,4"/>
<text text-anchor="middle" x="115" y="-567.4" font-family="Fira Code" font-size="12.00" fill="#9f7aea">(λx:a.λy:b.xλx:a.x) :: (∀X.((X→X)→(X→X)))</text>
<g id="clust1" class="cluster">
<title>cluster_term</title>
<polygon fill="#1a202c" stroke="#4a5568" stroke-dasharray="5,2" points="8,-227 8,-552 150,-552 150,-227 8,-227"/>
<text text-anchor="middle" x="31" y="-538.4" font-family="Fira Code" font-size="12.00" fill="#9f7aea">Term</text>
</g>
<g id="clust2" class="cluster">
<title>cluster_type</title>
<polygon fill="#1a202c" stroke="#553c9a" stroke-dasharray="5,2" points="158,-8 158,-300 372,-300 372,-8 158,-8"/>
<text text-anchor="middle" x="180" y="-286.4" font-family="Fira Code" font-size="12.00" fill="#9f7aea">Type</text>
</g>
<!-- t0 -->
<g id="node1" class="node">
<title>t0</title>
<ellipse fill="#1a202c" stroke="black" cx="79" cy="-505" rx="18" ry="18"/>
<text text-anchor="middle" x="79" y="-502.8" font-family="Fira Code" font-size="9.00" fill="#9f7aea">@</text>
</g>
<!-- t1 -->
<g id="node2" class="node">
<title>t1</title>
<polygon fill="#2d3748" stroke="black" points="43,-450 16,-432 43,-414 70,-432 43,-450"/>
<text text-anchor="middle" x="43" y="-429.8" font-family="Fira Code" font-size="9.00" fill="#9f7aea">λx</text>
</g>
<!-- t0&#45;&gt;t1 -->
<g id="edge2" class="edge">
<title>t0&#45;&gt;t1</title>
<path fill="none" stroke="#cbd5e0" d="M71.19,-488.59C66.2,-478.75 59.65,-465.84 54.12,-454.93"/>
<polygon fill="#cbd5e0" stroke="#cbd5e0" points="57.23,-453.33 49.59,-446 50.99,-456.5 57.23,-453.33"/>
</g>
<!-- t6 -->
<g id="node5" class="node">
<title>t6</title>
<polygon fill="#2d3748" stroke="black" points="115,-450 88,-432 115,-414 142,-432 115,-450"/>
<text text-anchor="middle" x="115" y="-429.8" font-family="Fira Code" font-size="9.00" fill="#9f7aea">λx</text>
</g>
<!-- t0&#45;&gt;t6 -->
<g id="edge7" class="edge">
<title>t0&#45;&gt;t6</title>
<path fill="none" stroke="#cbd5e0" d="M86.81,-488.59C91.8,-478.75 98.35,-465.84 103.88,-454.93"/>
<polygon fill="#cbd5e0" stroke="#cbd5e0" points="107.01,-456.5 108.41,-446 100.77,-453.33 107.01,-456.5"/>
</g>
<!-- ty8 -->
<g id="node9" class="node">
<title>ty8</title>
<polygon fill="#6b46c1" stroke="black" points="193,-271 166,-253 193,-235 220,-253 193,-271"/>
<text text-anchor="middle" x="193" y="-250.8" font-family="Fira Code" font-size="9.00" fill="#9f7aea">∀X</text>
</g>
<!-- t0&#45;&gt;ty8 -->
<g id="edge16" class="edge">
<title>t0&#45;&gt;ty8</title>
<path fill="none" stroke="#9f7aea" stroke-width="2" d="M96.5,-499.94C141.08,-488.55 258.53,-451.62 304,-370 311.79,-356.02 312.67,-347.45 304,-334 284.17,-303.24 257.77,-322.62 229,-300 220.12,-293.02 212.16,-283.41 205.99,-274.78"/>
<polygon fill="#9f7aea" stroke="#9f7aea" stroke-width="2" points="208.75,-272.62 200.25,-266.29 202.95,-276.54 208.75,-272.62"/>
<text text-anchor="middle" x="293.5" y="-390.4" font-family="Fira Code" font-size="7.00">::</text>
</g>
<!-- t3 -->
<g id="node3" class="node">
<title>t3</title>
<polygon fill="#2d3748" stroke="black" points="43,-370 16,-352 43,-334 70,-352 43,-370"/>
<text text-anchor="middle" x="43" y="-349.8" font-family="Fira Code" font-size="9.00" fill="#9f7aea">λy</text>
</g>
<!-- t1&#45;&gt;t3 -->
<g id="edge4" class="edge">
<title>t1&#45;&gt;t3</title>
<path fill="none" stroke="#cbd5e0" d="M43,-413.69C43,-403.89 43,-391.42 43,-380.33"/>
<polygon fill="#cbd5e0" stroke="#cbd5e0" points="46.5,-380.26 43,-370.26 39.5,-380.26 46.5,-380.26"/>
</g>
<!-- ty2 -->
<g id="node7" class="node">
<title>ty2</title>
<ellipse fill="#553c9a" stroke="black" cx="337" cy="-253" rx="27" ry="18"/>
<text text-anchor="middle" x="337" y="-250.8" font-family="Fira Code" font-size="9.00" fill="#9f7aea">a</text>
</g>
<!-- t1&#45;&gt;ty2 -->
<g id="edge1" class="edge">
<title>t1&#45;&gt;ty2</title>
<path fill="none" stroke="#718096" stroke-dasharray="5,2" d="M58.03,-423.84C109.99,-399.02 280,-317.27 301,-300 308.43,-293.89 315.3,-285.99 321,-278.47"/>
<polygon fill="#718096" stroke="#718096" points="324.13,-280.1 327.12,-269.94 318.45,-276.02 324.13,-280.1"/>
<text text-anchor="middle" x="238.5" y="-350.4" font-family="Fira Code" font-size="7.00">:</text>
</g>
<!-- t5 -->
<g id="node4" class="node">
<title>t5</title>
<ellipse fill="#4a5568" stroke="black" cx="43" cy="-253" rx="27" ry="18"/>
<text text-anchor="middle" x="43" y="-250.8" font-family="Fira Code" font-size="9.00" fill="#9f7aea">x</text>
</g>
<!-- t3&#45;&gt;t5 -->
<g id="edge5" class="edge">
<title>t3&#45;&gt;t5</title>
<path fill="none" stroke="#cbd5e0" d="M43,-333.66C43,-319.18 43,-298.26 43,-281.5"/>
<polygon fill="#cbd5e0" stroke="#cbd5e0" points="46.5,-281.19 43,-271.19 39.5,-281.19 46.5,-281.19"/>
</g>
<!-- ty4 -->
<g id="node8" class="node">
<title>ty4</title>
<ellipse fill="#553c9a" stroke="black" cx="265" cy="-253" rx="27" ry="18"/>
<text text-anchor="middle" x="265" y="-250.8" font-family="Fira Code" font-size="9.00" fill="#9f7aea">b</text>
</g>
<!-- t3&#45;&gt;ty4 -->
<g id="edge3" class="edge">
<title>t3&#45;&gt;ty4</title>
<path fill="none" stroke="#718096" stroke-dasharray="5,2" d="M57.41,-343.31C63.88,-340.09 71.68,-336.52 79,-334 111.31,-322.86 200.13,-318.29 229,-300 237.43,-294.66 244.7,-286.63 250.45,-278.76"/>
<polygon fill="#718096" stroke="#718096" points="253.38,-280.67 256.09,-270.43 247.59,-276.75 253.38,-280.67"/>
<text text-anchor="middle" x="209.5" y="-310.4" font-family="Fira Code" font-size="7.00">:</text>
</g>
<!-- t7 -->
<g id="node6" class="node">
<title>t7</title>
<ellipse fill="#4a5568" stroke="black" cx="115" cy="-352" rx="27" ry="18"/>
<text text-anchor="middle" x="115" y="-349.8" font-family="Fira Code" font-size="9.00" fill="#9f7aea">x</text>
</g>
<!-- t6&#45;&gt;t7 -->
<g id="edge8" class="edge">
<title>t6&#45;&gt;t7</title>
<path fill="none" stroke="#cbd5e0" d="M115,-413.69C115,-403.89 115,-391.42 115,-380.33"/>
<polygon fill="#cbd5e0" stroke="#cbd5e0" points="118.5,-380.26 115,-370.26 111.5,-380.26 118.5,-380.26"/>
</g>
<!-- t6&#45;&gt;ty2 -->
<g id="edge6" class="edge">
<title>t6&#45;&gt;ty2</title>
<path fill="none" stroke="#718096" stroke-dasharray="5,2" d="M138.57,-429.6C166.21,-426.91 212.26,-419.04 244,-396 284.89,-366.32 312.72,-312.7 326.65,-280.53"/>
<polygon fill="#718096" stroke="#718096" points="330.05,-281.47 330.68,-270.89 323.59,-278.76 330.05,-281.47"/>
<text text-anchor="middle" x="298.5" y="-350.4" font-family="Fira Code" font-size="7.00">:</text>
</g>
<!-- ty9 -->
<g id="node10" class="node">
<title>ty9</title>
<ellipse fill="#7c2d12" stroke="black" cx="193" cy="-180" rx="18" ry="18"/>
<text text-anchor="middle" x="193" y="-177.8" font-family="Fira Code" font-size="9.00" fill="#9f7aea">→</text>
</g>
<!-- ty8&#45;&gt;ty9 -->
<g id="edge9" class="edge">
<title>ty8&#45;&gt;ty9</title>
<path fill="none" stroke="#718096" stroke-dasharray="5,2" d="M193,-234.81C193,-226.79 193,-217.05 193,-208.07"/>
<polygon fill="#718096" stroke="#718096" points="196.5,-208.03 193,-198.03 189.5,-208.03 196.5,-208.03"/>
</g>
<!-- ty10 -->
<g id="node11" class="node">
<title>ty10</title>
<ellipse fill="#7c2d12" stroke="black" cx="185" cy="-107" rx="18" ry="18"/>
<text text-anchor="middle" x="185" y="-104.8" font-family="Fira Code" font-size="9.00" fill="#9f7aea">→</text>
</g>
<!-- ty9&#45;&gt;ty10 -->
<g id="edge10" class="edge">
<title>ty9&#45;&gt;ty10</title>
<path fill="none" stroke="#718096" stroke-dasharray="5,2" d="M191.06,-161.81C190.16,-153.79 189.06,-144.05 188.05,-135.07"/>
<polygon fill="#718096" stroke="#718096" points="191.52,-134.57 186.92,-125.03 184.56,-135.36 191.52,-134.57"/>
</g>
<!-- ty12 -->
<g id="node13" class="node">
<title>ty12</title>
<ellipse fill="#7c2d12" stroke="black" cx="239" cy="-107" rx="18" ry="18"/>
<text text-anchor="middle" x="239" y="-104.8" font-family="Fira Code" font-size="9.00" fill="#9f7aea">→</text>
</g>
<!-- ty9&#45;&gt;ty12 -->
<g id="edge13" class="edge">
<title>ty9&#45;&gt;ty12</title>
<path fill="none" stroke="#718096" stroke-dasharray="5,2" d="M202.53,-164.29C208.7,-154.77 216.86,-142.17 223.9,-131.3"/>
<polygon fill="#718096" stroke="#718096" points="226.98,-132.99 229.48,-122.69 221.11,-129.18 226.98,-132.99"/>
</g>
<!-- ty11 -->
<g id="node12" class="node">
<title>ty11</title>
<ellipse fill="#553c9a" stroke="black" cx="216" cy="-34" rx="27" ry="18"/>
<text text-anchor="middle" x="216" y="-31.8" font-family="Fira Code" font-size="9.00" fill="#9f7aea">X</text>
</g>
<!-- ty10&#45;&gt;ty11 -->
<g id="edge11" class="edge">
<title>ty10&#45;&gt;ty11</title>
<path fill="none" stroke="#718096" stroke-dasharray="5,2" d="M186.63,-88.81C189.6,-79.86 194.26,-68.76 199.11,-58.97"/>
<polygon fill="#718096" stroke="#718096" points="202.22,-60.58 203.77,-50.1 196.02,-57.33 202.22,-60.58"/>
</g>
<!-- ty10&#45;&gt;ty11 -->
<g id="edge12" class="edge">
<title>ty10&#45;&gt;ty11</title>
<path fill="none" stroke="#718096" stroke-dasharray="5,2" d="M196.24,-92.65C201.27,-83.94 206.75,-72.27 210.9,-61.72"/>
<polygon fill="#718096" stroke="#718096" points="214.28,-62.66 214.41,-52.06 207.7,-60.26 214.28,-62.66"/>
</g>
<!-- ty12&#45;&gt;ty11 -->
<g id="edge14" class="edge">
<title>ty12&#45;&gt;ty11</title>
<path fill="none" stroke="#718096" stroke-dasharray="5,2" d="M228.95,-91.97C225.01,-83.36 221,-72.06 218.11,-61.79"/>
<polygon fill="#718096" stroke="#718096" points="221.48,-60.85 215.65,-52 214.7,-62.56 221.48,-60.85"/>
</g>
<!-- ty12&#45;&gt;ty11 -->
<g id="edge15" class="edge">
<title>ty12&#45;&gt;ty11</title>
<path fill="none" stroke="#718096" stroke-dasharray="5,2" d="M239.31,-88.81C237.41,-80.16 234.16,-69.51 230.57,-59.98"/>
<polygon fill="#718096" stroke="#718096" points="233.76,-58.52 226.74,-50.58 227.27,-61.16 233.76,-58.52"/>
</g>
</g>
</svg>
