<?xml version="1.0" encoding="UTF-8" standalone="no"?>
<!DOCTYPE svg PUBLIC "-//W3C//DTD SVG 1.1//EN"
 "http://www.w3.org/Graphics/SVG/1.1/DTD/svg11.dtd">
<!-- Generated by graphviz version 2.43.0 (0)
 -->
<!-- Title: TermAndType_1 Pages: 1 -->
<svg width="244pt" height="436pt"
 viewBox="0.00 0.00 244.00 436.00" xmlns="http://www.w3.org/2000/svg" xmlns:xlink="http://www.w3.org/1999/xlink">
<g id="graph0" class="graph" transform="scale(1 1) rotate(0) translate(4 432)">
<title>TermAndType_1</title>
<polygon fill="#1a202c" stroke="transparent" points="-4,4 -4,-432 240,-432 240,4 -4,4"/>
<text text-anchor="middle" x="82" y="-414.4" font-family="Fira Code" font-size="12.00" fill="#9f7aea">λx:a.x :: (∀X.((X→X)→(X→X)))</text>
<g id="clust1" class="cluster">
<title>cluster_term</title>
<polygon fill="#1a202c" stroke="#4a5568" stroke-dasharray="5,2" points="8,-227 8,-399 78,-399 78,-227 8,-227"/>
<text text-anchor="middle" x="31" y="-385.4" font-family="Fira Code" font-size="12.00" fill="#9f7aea">Term</text>
</g>
<g id="clust2" class="cluster">
<title>cluster_type</title>
<polygon fill="#1a202c" stroke="#553c9a" stroke-dasharray="5,2" points="86,-8 86,-300 228,-300 228,-8 86,-8"/>
<text text-anchor="middle" x="108" y="-286.4" font-family="Fira Code" font-size="12.00" fill="#9f7aea">Type</text>
</g>
<!-- t0 -->
<g id="node1" class="node">
<title>t0</title>
<polygon fill="#2d3748" stroke="black" points="43,-370 16,-352 43,-334 70,-352 43,-370"/>
<text text-anchor="middle" x="43" y="-349.8" font-family="Fira Code" font-size="9.00" fill="#9f7aea">λx</text>
</g>
<!-- t2 -->
<g id="node2" class="node">
<title>t2</title>
<ellipse fill="#4a5568" stroke="black" cx="43" cy="-253" rx="27" ry="18"/>
<text text-anchor="middle" x="43" y="-250.8" font-family="Fira Code" font-size="9.00" fill="#9f7aea">x</text>
</g>
<!-- t0&#45;&gt;t2 -->
<g id="edge2" class="edge">
<title>t0&#45;&gt;t2</title>
<path fill="none" stroke="#cbd5e0" d="M43,-333.66C43,-319.18 43,-298.26 43,-281.5"/>
<polygon fill="#cbd5e0" stroke="#cbd5e0" points="46.5,-281.19 43,-271.19 39.5,-281.19 46.5,-281.19"/>
</g>
<!-- ty1 -->
<g id="node3" class="node">
<title>ty1</title>
<ellipse fill="#553c9a" stroke="black" cx="193" cy="-253" rx="27" ry="18"/>
<text text-anchor="middle" x="193" y="-250.8" font-family="Fira Code" font-size="9.00" fill="#9f7aea">a</text>
</g>
<!-- t0&#45;&gt;ty1 -->
<g id="edge1" class="edge">
<title>t0&#45;&gt;ty1</title>
<path fill="none" stroke="#718096" stroke-dasharray="5,2" d="M51.57,-339.33C59.71,-329.2 72.94,-315.07 88,-308 115.94,-294.88 130.07,-315.1 157,-300 165.83,-295.05 173.25,-286.96 179.02,-278.93"/>
<polygon fill="#718096" stroke="#718096" points="182.06,-280.68 184.61,-270.4 176.2,-276.84 182.06,-280.68"/>
<text text-anchor="middle" x="89.5" y="-310.4" font-family="Fira Code" font-size="7.00">:</text>
</g>
<!-- ty3 -->
<g id="node4" class="node">
<title>ty3</title>
<polygon fill="#6b46c1" stroke="black" points="121,-271 94,-253 121,-235 148,-253 121,-271"/>
<text text-anchor="middle" x="121" y="-250.8" font-family="Fira Code" font-size="9.00" fill="#9f7aea">∀X</text>
</g>
<!-- t0&#45;&gt;ty3 -->
<g id="edge10" class="edge">
<title>t0&#45;&gt;ty3</title>
<path fill="none" stroke="#9f7aea" stroke-width="2" d="M56.44,-342.76C66.1,-336.35 78.95,-326.75 88,-316 97.85,-304.29 105.97,-289.17 111.69,-276.79"/>
<polygon fill="#9f7aea" stroke="#9f7aea" stroke-width="2" points="114.93,-278.13 115.75,-267.57 108.52,-275.31 114.93,-278.13"/>
<text text-anchor="middle" x="95.5" y="-310.4" font-family="Fira Code" font-size="7.00">::</text>
</g>
<!-- ty4 -->
<g id="node5" class="node">
<title>ty4</title>
<ellipse fill="#7c2d12" stroke="black" cx="121" cy="-180" rx="18" ry="18"/>
<text text-anchor="middle" x="121" y="-177.8" font-family="Fira Code" font-size="9.00" fill="#9f7aea">→</text>
</g>
<!-- ty3&#45;&gt;ty4 -->
<g id="edge3" class="edge">
<title>ty3&#45;&gt;ty4</title>
<path fill="none" stroke="#718096" stroke-dasharray="5,2" d="M121,-234.81C121,-226.79 121,-217.05 121,-208.07"/>
<polygon fill="#718096" stroke="#718096" points="124.5,-208.03 121,-198.03 117.5,-208.03 124.5,-208.03"/>
</g>
<!-- ty5 -->
<g id="node6" class="node">
<title>ty5</title>
<ellipse fill="#7c2d12" stroke="black" cx="113" cy="-107" rx="18" ry="18"/>
<text text-anchor="middle" x="113" y="-104.8" font-family="Fira Code" font-size="9.00" fill="#9f7aea">→</text>
</g>
<!-- ty4&#45;&gt;ty5 -->
<g id="edge4" class="edge">
<title>ty4&#45;&gt;ty5</title>
<path fill="none" stroke="#718096" stroke-dasharray="5,2" d="M119.06,-161.81C118.16,-153.79 117.06,-144.05 116.05,-135.07"/>
<polygon fill="#718096" stroke="#718096" points="119.52,-134.57 114.92,-125.03 112.56,-135.36 119.52,-134.57"/>
</g>
<!-- ty7 -->
<g id="node8" class="node">
<title>ty7</title>
<ellipse fill="#7c2d12" stroke="black" cx="167" cy="-107" rx="18" ry="18"/>
<text text-anchor="middle" x="167" y="-104.8" font-family="Fira Code" font-size="9.00" fill="#9f7aea">→</text>
</g>
<!-- ty4&#45;&gt;ty7 -->
<g id="edge7" class="edge">
<title>ty4&#45;&gt;ty7</title>
<path fill="none" stroke="#718096" stroke-dasharray="5,2" d="M130.53,-164.29C136.7,-154.77 144.86,-142.17 151.9,-131.3"/>
<polygon fill="#718096" stroke="#718096" points="154.98,-132.99 157.48,-122.69 149.11,-129.18 154.98,-132.99"/>
</g>
<!-- ty6 -->
<g id="node7" class="node">
<title>ty6</title>
<ellipse fill="#553c9a" stroke="black" cx="144" cy="-34" rx="27" ry="18"/>
<text text-anchor="middle" x="144" y="-31.8" font-family="Fira Code" font-size="9.00" fill="#9f7aea">X</text>
</g>
<!-- ty5&#45;&gt;ty6 -->
<g id="edge5" class="edge">
<title>ty5&#45;&gt;ty6</title>
<path fill="none" stroke="#718096" stroke-dasharray="5,2" d="M114.63,-88.81C117.6,-79.86 122.26,-68.76 127.11,-58.97"/>
<polygon fill="#718096" stroke="#718096" points="130.22,-60.58 131.77,-50.1 124.02,-57.33 130.22,-60.58"/>
</g>
<!-- ty5&#45;&gt;ty6 -->
<g id="edge6" class="edge">
<title>ty5&#45;&gt;ty6</title>
<path fill="none" stroke="#718096" stroke-dasharray="5,2" d="M124.24,-92.65C129.27,-83.94 134.75,-72.27 138.9,-61.72"/>
<polygon fill="#718096" stroke="#718096" points="142.28,-62.66 142.41,-52.06 135.7,-60.26 142.28,-62.66"/>
</g>
<!-- ty7&#45;&gt;ty6 -->
<g id="edge8" class="edge">
<title>ty7&#45;&gt;ty6</title>
<path fill="none" stroke="#718096" stroke-dasharray="5,2" d="M156.95,-91.97C153.01,-83.36 149,-72.06 146.11,-61.79"/>
<polygon fill="#718096" stroke="#718096" points="149.48,-60.85 143.65,-52 142.7,-62.56 149.48,-60.85"/>
</g>
<!-- ty7&#45;&gt;ty6 -->
<g id="edge9" class="edge">
<title>ty7&#45;&gt;ty6</title>
<path fill="none" stroke="#718096" stroke-dasharray="5,2" d="M167.31,-88.81C165.41,-80.16 162.16,-69.51 158.57,-59.98"/>
<polygon fill="#718096" stroke="#718096" points="161.76,-58.52 154.74,-50.58 155.27,-61.16 161.76,-58.52"/>
</g>
</g>
</svg>
